<svg viewBox="0 0 25 25" fill="none" xmlns="http://www.w3.org/2000/svg">
<path d="M24 16L22 14M23 8C23 11.866 19.866 15 16 15C12.134 15 9 11.866 9 8C9 4.13401 12.134 1 16 1C19.866 1 23 4.13401 23 8Z" stroke="#33363F" stroke-width="2" stroke-linecap="round"/>
<path fill-rule="evenodd" clip-rule="evenodd" d="M8.10243 4.85089L7.83205 4.44531L6.16795 5.55471L7.42803 7.44483C6.89337 7.77375 6.47164 8.26464 6.22836 8.85196C6.09336 9.17789 6.04385 9.5078 6.02135 9.83763C5.99998 10.1509 5.99999 10.5294 6 10.968L6 11V12.1837C5.83024 12.2371 5.66314 12.3077 5.5 12.4019C5.04394 12.6652 4.66523 13.044 4.40192 13.5C4.33581 13.6145 4.28129 13.731 4.23619 13.849C3.51056 13.5489 3 12.8341 3 12V11H1V12C1 13.864 2.27504 15.4303 4.00054 15.8741C3.99999 16.0079 3.99999 16.1467 4 16.2904L4 16.3333V17H0V19H4.00634C4.01577 19.3765 4.03902 19.6886 4.09607 19.9755C4.10683 20.0296 4.11845 20.0833 4.13092 20.1368C3.23603 20.4234 2.52966 21.1184 2.05356 21.8137C1.41588 22.7451 1 23.9385 1 25H3C3 24.4046 3.25569 23.5981 3.7038 22.9437C4.16842 22.2651 4.6553 22.0001 4.99989 22C5.72461 22.9659 6.79082 23.6585 8.02455 23.9039C8.50934 24.0004 9.06661 24.0002 9.88418 24H9.88422L10 24L10.1158 24H10.1158C10.9334 24.0002 11.4907 24.0004 11.9755 23.9039C13.2092 23.6585 14.2754 22.9659 15.0001 22C15.3447 22.0001 15.8316 22.2651 16.2962 22.9437C16.7443 23.5981 17 24.4046 17 25H19C19 23.9385 18.5841 22.7451 17.9464 21.8137C17.4703 21.1184 16.764 20.4234 15.8691 20.1368C15.8815 20.0833 15.8932 20.0296 15.9039 19.9755C15.961 19.6886 15.9842 19.3765 15.9937 19H20V17H16V16.5C15.3111 16.5 14.6414 16.4181 14 16.2634C14 16.2864 14 16.3097 14 16.3333V18C14 18.9773 13.9952 19.3198 13.9424 19.5853C13.7056 20.7754 12.7753 21.7057 11.5853 21.9424C11.3198 21.9952 10.9772 22 10 22C9.02276 22 8.68018 21.9952 8.41473 21.9424C7.22466 21.7057 6.29436 20.7754 6.05764 19.5853C6.00484 19.3198 6 18.9773 6 18V16.3333C6 15.6919 6.00096 15.2776 6.02941 14.9637C6.05662 14.6635 6.10252 14.5545 6.13397 14.5C6.22174 14.348 6.34798 14.2218 6.5 14.134C6.55448 14.1025 6.66347 14.0566 6.96366 14.0294C7.2776 14.001 7.69185 14 8.33333 14H9V17H11V14.8746C9.96436 14.1201 9.10573 13.1372 8.49811 12H8.33333L8.29037 12L8.20653 12H8V11C8 10.9585 8 10.9182 8.00002 10.8792C7.67637 9.98005 7.5 9.01062 7.5 8C7.5 6.88743 7.71375 5.82478 8.10243 4.85089Z" fill="#33363F"/>
<path fill-rule="evenodd" clip-rule="evenodd" d="M10.6488 6.72411L12.1679 4.44531L13.8321 5.55471L12.572 7.44483C13.1066 7.77375 13.5284 8.26464 13.7716 8.85196C13.9066 9.17789 13.9561 9.5078 13.9787 9.83763C14 10.1509 14 10.5293 14 10.968V10.968V11V12.1837C14.1698 12.2371 14.3369 12.3077 14.5 12.4019C14.951 12.6623 15.3264 13.0356 15.5893 13.4849C14.178 13.3807 12.9149 12.744 12 11.775V11C12 10.5204 11.9995 10.2108 11.9833 9.97377C11.9677 9.74577 11.9411 9.65894 11.9239 9.61733C11.8224 9.3723 11.6277 9.17763 11.3827 9.07613C11.3411 9.0589 11.2542 9.03228 11.0262 9.01672C10.9047 9.00843 10.764 9.00425 10.5911 9.00214C10.5313 8.6772 10.5 8.34226 10.5 8.00001C10.5 7.56078 10.5515 7.13358 10.6488 6.72411ZM16.3341 13.49C17.2924 13.4326 18.1845 13.1299 18.9485 12.6437C18.9824 12.4342 19 12.2191 19 12V11H17V12C17 12.592 16.7428 13.1238 16.3341 13.49Z" fill="#33363F"/>
</svg>
