<svg width="206" height="206" viewBox="0 0 206 206" fill="none" xmlns="http://www.w3.org/2000/svg">
<path d="M126.161 98.4945C125.606 98.3762 125.362 98.1363 124.92 97.8213C124.066 97.2117 123.3 95.953 122.934 95.2896C122.778 95.0051 122.655 94.7074 122.546 94.4052C122.208 93.4568 122.034 92.4672 122.032 91.4711L122.028 90.4462L122.158 83.571C122.161 83.395 122.164 83.2269 122.17 83.051C122.219 81.1886 122.552 69.5829 123.309 61.9524C125.055 44.337 130.69 21.0285 132.087 17.3586C132.518 16.2282 133.207 14.765 133.706 13.7432C134.11 12.9187 134.532 12.1016 134.842 11.245C135.126 10.4568 135.419 9.44272 135.407 8.63375C135.385 7.11105 135.457 5.62068 134.358 4.43287C133.075 3.04353 131.453 2.84798 129.42 3.08639C128.195 3.22997 126.998 3.96476 125.85 4.97147C124.182 6.43587 124.395 7.92855 123.369 9.78601C121.444 13.2716 120.136 15.1297 117.94 18.4898C114.962 23.0443 113.167 25.5317 109.966 29.9612C104.377 37.692 100.926 41.8374 94.9796 49.3498C90.7854 54.6485 85.6762 60.6247 84.1208 62.8414C82.5653 65.058 82.0787 64.5576 80.7415 62.4642C80.187 61.5961 79.4447 60.5029 78.8397 59.6246C78.1259 58.5884 77.4291 57.543 76.7657 56.4802C75.8159 54.9586 74.8152 53.4615 73.6348 52.0763C72.6592 50.9316 71.3778 49.5369 70.0973 48.4608C68.5565 47.166 67.603 46.4747 65.7226 45.5797C62.9353 44.2531 60.1267 43.8319 57.9041 43.614C55.7729 43.4051 54.5529 43.4718 52.4124 43.5872C50.2045 43.7062 48.9704 43.8758 46.7968 44.2334C44.1143 44.6747 42.5773 44.9089 40.0331 45.7688C35.1229 47.4282 31.2148 50.0019 29.1485 51.5454C27.0822 53.0889 16.0984 62.1654 10.5585 71.0637C7.69764 75.6589 6.13826 78.2762 4.4153 83.3752C4.28648 83.7566 4.16424 84.1651 4.04869 84.5924C2.23346 91.3043 2.58347 98.7273 6.61808 104.607C7.71925 106.213 8.4673 107.066 9.96884 108.405C12.186 110.38 13.7195 111.319 16.5774 112.524C19.4364 113.731 21.2451 114.125 24.3959 114.489C26.7699 114.765 28.1325 114.884 30.5274 114.873C34.2434 114.855 36.3752 114.79 40.0331 114.221C45.4637 113.377 49.1212 112.987 53.1881 109.751C55.314 108.059 56.2414 106.818 57.5937 104.607C58.8966 102.477 59.2921 101.127 59.9827 98.7907C60.6512 96.5302 60.8724 95.2193 61.0997 92.8938C61.2074 91.792 61.231 91.1713 61.2548 90.0658C61.267 89.505 61.2573 88.8277 61.2404 88.1971C61.2045 86.8574 61.1917 85.5112 60.9507 84.1886C60.6858 82.7335 60.0883 80.8783 58.7421 80.0484C57.0897 79.0297 54.9387 78.7787 52.9509 79.0081C52.7506 79.0312 52.5584 79.063 52.3815 79.1055C49.8218 79.7207 48.7863 81.005 47.5727 82.9567C46.4146 84.8191 46.3763 86.1733 46.4558 88.2885C46.5575 91.0004 48.7761 92.2009 48.8692 94.913C48.9216 96.4385 48.9239 97.3604 48.3108 98.7907C47.7894 100.007 47.2802 100.638 46.3002 101.618C44.8927 103.027 43.7372 103.541 41.8326 104.403C40.502 105.004 38.6498 105.47 37.1493 105.782C35.4423 106.138 33.7024 106.347 31.9526 106.429C30.9326 106.477 29.7892 106.501 28.8637 106.439C25.5469 106.217 23.5168 106.012 20.6109 104.607C17.4046 103.057 15.7108 101.619 14.021 98.7907C12.579 96.3775 12.1616 94.7136 11.8988 92.0047C11.2268 85.0768 14.021 81.6046 18.9355 73.8551C22.013 69.0023 28.5321 62.9219 30.2442 61.3615C30.5253 61.1054 30.8009 60.8575 31.0877 60.6068C32.4108 59.4496 36.5788 55.9242 40.0331 54.3046C43.6806 52.5943 45.9888 51.6962 50.0855 51.145C52.6744 50.7967 54.6775 50.6921 56.7871 51.0837C59.1065 51.5142 60.3282 52.0799 62.2787 53.3352C65.5781 55.4584 69.7611 60.733 71.4188 62.9186C71.9081 63.5638 72.3698 64.2239 72.8248 64.889L76.4023 70.1197C77.1819 71.2594 77.9462 72.424 79.0033 73.3663C79.7081 73.9946 80.5958 74.6059 81.4838 74.7378C83.035 74.9683 84.0335 74.572 85.3882 73.8551C85.908 73.5799 96.8881 60.8127 99.5122 57.7571C99.8877 57.3192 100.255 56.8834 100.622 56.4396L113.967 40.3288L115.994 38.0065C116.443 37.4919 117.357 37.8919 117.182 38.5268C117.181 38.5311 117.18 38.5334 117.179 38.5377C117.139 38.6708 116.214 41.7381 115.953 42.6177C113.018 52.5579 113.601 58.5091 112.666 68.7384C112.008 75.9212 112.606 80.0298 111.424 87.1575C111.298 87.9158 111.254 88.3455 111.082 89.0964L110.835 90.0658L110.443 91.814C110.415 91.9411 110.386 92.0679 110.356 92.1947C110.268 92.5616 110.065 93.3805 109.873 93.9436C109.785 94.1993 109.668 94.4982 109.549 94.7835C109.242 95.5214 108.888 96.2421 108.53 96.9614L108.104 97.8213L106.987 99.7601L106.366 100.729L105.68 102.071C105.476 102.468 105.312 102.881 105.191 103.306C105.126 103.527 105.074 103.75 105.037 103.977C104.972 104.383 104.871 105.071 104.846 105.577C104.828 105.987 104.846 106.524 104.869 106.928C104.89 107.32 104.956 107.708 105.053 108.09L105.091 108.242C105.278 108.992 105.601 109.708 106.047 110.363C106.342 110.798 106.688 111.201 107.081 111.568L107.297 111.771L108.596 113.068C108.826 113.297 109.034 113.543 109.219 113.803C109.468 114.152 109.674 114.525 109.831 114.916L110.369 116.241C110.679 117.53 110.857 118.832 110.914 120.151C111.163 125.964 112.024 143.416 113.837 155.987C120.068 199.183 136.029 201.813 139.585 202.787C143.142 203.761 146.709 201.185 142.378 199.341C138.047 197.497 129.479 194.179 123.262 164.649C117.444 137.014 121.035 119.557 121.52 117.43C121.554 117.282 121.577 117.134 121.586 116.983L121.776 113.923C121.918 111.665 124.843 113.92 127.092 112.902C127.62 112.663 128.931 112.006 129.84 111.549C130.357 111.288 131.011 111.462 131.283 111.935C131.323 112.005 131.372 112.069 131.43 112.128L142.683 123.474C144.299 125.102 145.806 126.825 147.542 128.349C148.917 129.556 150.58 130.716 151.716 130.503C155.799 129.74 157.816 125.508 160.263 122.474L165.375 116.137C169.947 110.468 175.17 105.246 180.956 100.556L186.993 95.6626C190.33 92.9569 194.07 90.6803 197.5 88.0694C197.605 87.99 197.715 87.9043 197.828 87.8149C199.061 86.8422 200.276 85.831 201.235 84.6342C201.298 84.5567 201.356 84.4805 201.409 84.4068C201.931 83.6912 202.225 83.2732 202.527 82.4679C202.665 82.0968 202.721 81.8817 202.805 81.4985C202.889 81.1233 202.937 80.9108 202.961 80.5291C203.007 79.7789 203.082 79.2922 202.713 78.6174C202.11 77.5138 201.022 77.3325 199.703 77.0057C198.028 76.5908 196.115 77.0443 195.266 77.3024C193.384 77.8749 192.389 78.5414 190.766 79.6184C188.161 81.3462 185.947 83.5073 183.447 85.3563L178.499 89.0177C173.086 93.0221 168.127 97.497 163.694 102.377L152.434 114.773C152.349 114.865 152.283 114.97 152.237 115.082C151.972 115.734 151.096 115.991 150.46 115.595C149.904 115.252 149.309 114.877 149.004 114.665C148.951 114.629 148.905 114.592 148.857 114.552C148.355 114.128 145.297 111.527 144.182 110.164C142.853 108.538 139.246 104.421 139.223 103.638C139.19 102.434 140.133 101.188 141.053 99.7601C141.835 98.5481 142.535 98.0135 143.412 96.8519C144.526 95.3769 145.127 94.5321 146.08 92.9741C146.537 92.2264 148.873 88.3625 150.114 85.2187C151.135 82.6295 151.715 79.9515 152.129 78.4326C152.953 75.4203 153.361 73.7192 154.023 70.6773C155.238 65.0994 155.264 61.8763 156.474 56.2975C156.817 54.7166 156.903 53.8373 157.256 52.2581C157.762 49.9902 158.06 48.6951 158.645 46.4415C159.442 43.3723 159.822 41.6106 161.158 38.6861C161.535 37.8608 162.402 36.2361 162.868 35.3751C163.072 34.9965 163.279 34.6203 163.504 34.2511C163.782 33.7952 164.189 33.1595 164.541 32.7404C165.495 31.6042 166.074 30.9761 167.309 30.1229C168.1 29.5758 168.647 29.3586 169.535 28.9887C169.565 28.9763 169.594 28.9642 169.624 28.9523C170.684 28.5254 171.832 28.3095 172.948 28.0223C177.042 27.3445 177.583 26.5482 174.568 25.5924C173.505 25.2552 172.396 25.0282 171.273 24.9302C168.88 24.7211 167.44 24.7092 165.13 25.3072C164.86 25.377 164.566 25.4696 164.269 25.5732C162.567 26.1652 160.996 27.0409 159.638 28.1346C158.859 28.7616 158.045 29.5975 157.305 30.4356C155.381 32.6152 153.902 35.0921 152.875 37.7167C152.145 39.5794 151.881 40.6638 151.293 42.5638C150.914 43.7853 150.452 45.3839 150.107 46.596C149.769 47.7853 149.464 48.9811 149.182 50.1822L148.469 53.2275L146.98 60.6599L145.987 66.7996L144.56 72.6161L143.629 76.1708C142.885 79.0781 142.093 81.9872 140.819 84.7424C140.583 85.2555 140.335 85.7519 140.091 86.1881C139.109 87.9427 137.367 90.1378 136.263 91.4653C135.6 92.2634 134.871 93.0132 134.107 93.7364L133.758 94.0687C132.522 95.2397 131.18 96.3158 129.746 97.2858C129.218 97.6427 128.686 98.0028 128.087 98.2514C127.823 98.3609 127.534 98.4581 127.278 98.4945C126.848 98.5558 126.585 98.5848 126.161 98.4945Z" stroke="#003153" stroke-width="6"/>
<path d="M126.161 98.4945C125.606 98.3762 125.362 98.1363 124.92 97.8213C124.066 97.2117 123.3 95.953 122.934 95.2896C122.778 95.0051 122.654 94.7074 122.546 94.4052C122.208 93.4568 122.034 92.4672 122.031 91.4711L122.028 90.4462L122.157 83.571C122.161 83.395 122.164 83.2269 122.17 83.051C122.219 81.1886 122.552 69.5829 123.308 61.9524C125.055 44.337 130.69 21.0285 132.087 17.3586C132.518 16.2282 133.207 14.765 133.706 13.7432C134.11 12.9187 134.532 12.1016 134.842 11.245C135.126 10.4568 135.419 9.44272 135.407 8.63375C135.384 7.11105 135.457 5.62068 134.358 4.43287C133.074 3.04353 131.453 2.84798 129.419 3.08639C128.195 3.22997 126.998 3.96476 125.85 4.97147C124.182 6.43587 124.395 7.92855 123.369 9.78601C121.444 13.2716 120.136 15.1297 117.94 18.4898C114.962 23.0443 113.167 25.5317 109.966 29.9612C104.377 37.692 100.926 41.8374 94.9796 49.3498C90.7854 54.6485 85.6762 60.6247 84.1208 62.8414C82.5653 65.058 82.0787 64.5576 80.7415 62.4642C80.187 61.5961 79.4447 60.5029 78.8397 59.6246C78.1259 58.5884 77.4291 57.543 76.7657 56.4802C75.8159 54.9586 74.8152 53.4615 73.6348 52.0763C72.6592 50.9316 71.3778 49.5369 70.0973 48.4608C68.5565 47.166 67.603 46.4747 65.7226 45.5797C62.9353 44.2531 60.1267 43.8319 57.9041 43.614C55.7729 43.4051 54.5529 43.4718 52.4124 43.5872C50.2045 43.7062 48.9704 43.8758 46.7968 44.2334C44.1143 44.6747 42.5773 44.9089 40.0331 45.7688C35.1229 47.4282 31.2148 50.0019 29.1485 51.5454C27.0822 53.0889 16.0984 62.1654 10.5585 71.0637C7.69764 75.6589 6.13826 78.2762 4.4153 83.3752C4.28648 83.7566 4.16424 84.1651 4.04869 84.5924C2.23346 91.3043 2.58347 98.7273 6.61808 104.607C7.71925 106.213 8.4673 107.066 9.96884 108.405C12.186 110.38 13.7195 111.319 16.5774 112.524C19.4364 113.731 21.2451 114.125 24.3959 114.489C26.7699 114.765 28.1325 114.884 30.5274 114.873C34.2434 114.855 36.3752 114.79 40.0331 114.221C45.4637 113.377 49.1212 112.987 53.1881 109.751C55.314 108.059 56.2414 106.818 57.5937 104.607C58.8966 102.477 59.2921 101.127 59.9827 98.7907C60.6512 96.5302 60.8724 95.2193 61.0997 92.8938C61.2074 91.792 61.231 91.1713 61.2548 90.0658C61.267 89.505 61.2573 88.8277 61.2404 88.1971C61.2045 86.8574 61.1917 85.5112 60.9507 84.1886C60.6858 82.7335 60.0883 80.8783 58.742 80.0484C57.0897 79.0297 54.9387 78.7787 52.9509 79.0081C52.7506 79.0312 52.5584 79.063 52.3815 79.1055C49.8218 79.7207 48.7863 81.005 47.5727 82.9567C46.4146 84.8191 46.3763 86.1733 46.4558 88.2885C46.5575 91.0004 48.7761 92.2009 48.8692 94.913C48.9215 96.4385 48.9239 97.3604 48.3108 98.7907C47.7894 100.007 47.2802 100.638 46.3002 101.618C44.8927 103.027 43.7372 103.541 41.8326 104.403C40.502 105.004 38.6498 105.47 37.1493 105.782C35.4423 106.138 33.7024 106.347 31.9526 106.429C30.9326 106.477 29.7892 106.501 28.8637 106.439C25.5469 106.217 23.5168 106.012 20.6109 104.607C17.4046 103.057 15.7108 101.619 14.021 98.7907C12.579 96.3775 12.1616 94.7136 11.8988 92.0047C11.2268 85.0768 14.021 81.6046 18.9355 73.8551C22.013 69.0023 28.5321 62.9219 30.2442 61.3615C30.5252 61.1054 30.8009 60.8575 31.0876 60.6068C32.4108 59.4496 36.5788 55.9242 40.0331 54.3046C43.6806 52.5943 45.9888 51.6962 50.0855 51.145C52.6744 50.7967 54.6775 50.6921 56.7871 51.0837C59.1065 51.5142 60.3282 52.0799 62.2787 53.3352C65.5781 55.4584 69.7611 60.733 71.4188 62.9186C71.9081 63.5638 72.3698 64.2239 72.8248 64.889L76.4023 70.1197C77.1819 71.2594 77.9462 72.424 79.0033 73.3663C79.7081 73.9946 80.5957 74.6059 81.4837 74.7378C83.035 74.9683 84.0335 74.572 85.3882 73.8551C85.908 73.5799 96.8881 60.8127 99.5122 57.7571C99.8877 57.3192 100.255 56.8834 100.622 56.4396L113.967 40.3288L115.994 38.0065C116.443 37.4919 117.357 37.8919 117.182 38.5268C117.181 38.5311 117.18 38.5334 117.179 38.5377C117.139 38.6708 116.214 41.7381 115.953 42.6177C113.018 52.5579 113.601 58.5091 112.666 68.7384C112.008 75.9212 112.605 80.0298 111.424 87.1575C111.298 87.9158 111.254 88.3455 111.082 89.0964L110.835 90.0658L110.443 91.814C110.415 91.9411 110.386 92.0679 110.356 92.1947C110.268 92.5616 110.065 93.3805 109.873 93.9436C109.785 94.1993 109.668 94.4982 109.549 94.7835C109.242 95.5214 108.888 96.2421 108.53 96.9614L108.104 97.8213L106.987 99.7601L106.366 100.729L105.68 102.071C105.476 102.468 105.312 102.881 105.191 103.306C105.126 103.527 105.074 103.75 105.037 103.977C104.972 104.383 104.871 105.071 104.846 105.577C104.828 105.987 104.846 106.524 104.869 106.928C104.89 107.32 104.956 107.708 105.053 108.09L105.09 108.242C105.278 108.992 105.601 109.708 106.047 110.363C106.342 110.798 106.688 111.201 107.081 111.568L107.297 111.771L108.596 113.068C108.826 113.297 109.034 113.543 109.219 113.803C109.468 114.152 109.674 114.525 109.831 114.916L110.369 116.241C110.679 117.53 110.857 118.832 110.914 120.151C111.162 125.964 112.024 143.416 113.837 155.987C120.068 199.183 136.028 201.813 139.585 202.787C143.142 203.761 146.709 201.185 142.378 199.341C138.046 197.497 129.478 194.179 123.262 164.649C117.444 137.014 121.035 119.557 121.52 117.43C121.553 117.282 121.577 117.134 121.586 116.983L121.776 113.923C121.918 111.665 124.843 113.92 127.092 112.902C127.62 112.663 128.931 112.006 129.84 111.549C130.357 111.288 131.011 111.462 131.283 111.935C131.323 112.005 131.372 112.069 131.43 112.128L142.683 123.474C144.299 125.102 145.805 126.825 147.542 128.349C148.917 129.556 150.58 130.716 151.716 130.503C155.799 129.74 157.816 125.508 160.263 122.474L165.375 116.137C169.947 110.468 175.17 105.246 180.956 100.556L186.993 95.6626C190.33 92.9569 194.07 90.6803 197.5 88.0694C197.605 87.99 197.715 87.9043 197.827 87.8149C199.061 86.8422 200.276 85.831 201.235 84.6342C201.297 84.5567 201.355 84.4805 201.409 84.4068C201.93 83.6912 202.225 83.2732 202.527 82.4679C202.665 82.0968 202.72 81.8817 202.805 81.4985C202.889 81.1233 202.937 80.9108 202.961 80.5291C203.007 79.7789 203.082 79.2922 202.713 78.6174C202.11 77.5138 201.022 77.3325 199.703 77.0057C198.028 76.5908 196.115 77.0443 195.266 77.3024C193.384 77.8749 192.389 78.5414 190.766 79.6184C188.161 81.3462 185.947 83.5073 183.447 85.3563L178.499 89.0177C173.086 93.0221 168.126 97.497 163.694 102.377L152.433 114.773C152.349 114.865 152.283 114.97 152.237 115.082C151.972 115.734 151.096 115.991 150.46 115.595C149.904 115.252 149.309 114.877 149.004 114.665C148.951 114.629 148.904 114.592 148.857 114.552C148.355 114.128 145.297 111.527 144.182 110.164C142.853 108.538 139.245 104.421 139.223 103.638C139.19 102.434 140.132 101.188 141.053 99.7601C141.835 98.5481 142.535 98.0135 143.412 96.8519C144.526 95.3769 145.127 94.5321 146.08 92.9741C146.536 92.2264 148.873 88.3625 150.113 85.2187C151.135 82.6295 151.715 79.9515 152.129 78.4326C152.953 75.4203 153.361 73.7192 154.022 70.6773C155.238 65.0994 155.264 61.8763 156.474 56.2975C156.817 54.7166 156.903 53.8373 157.256 52.2581C157.762 49.9902 158.06 48.6951 158.645 46.4415C159.441 43.3723 159.821 41.6106 161.157 38.6861C161.535 37.8608 162.402 36.2361 162.868 35.3751C163.072 34.9965 163.279 34.6203 163.504 34.2511C163.782 33.7952 164.188 33.1595 164.541 32.7404C165.494 31.6042 166.074 30.9761 167.309 30.1229C168.1 29.5758 168.647 29.3586 169.535 28.9887C169.565 28.9763 169.594 28.9642 169.624 28.9523C170.684 28.5254 171.832 28.3095 172.948 28.0223C177.042 27.3445 177.583 26.5482 174.568 25.5924C173.505 25.2552 172.395 25.0282 171.273 24.9302C168.88 24.7211 167.44 24.7092 165.13 25.3072C164.86 25.377 164.566 25.4696 164.269 25.5732C162.567 26.1652 160.996 27.0409 159.638 28.1346C158.859 28.7616 158.045 29.5975 157.305 30.4356C155.381 32.6152 153.902 35.0921 152.875 37.7167C152.145 39.5794 151.881 40.6638 151.292 42.5638C150.914 43.7853 150.452 45.3839 150.107 46.596C149.769 47.7853 149.464 48.9811 149.182 50.1822L148.469 53.2275L146.98 60.6599L145.987 66.7996L144.56 72.6161L143.629 76.1708C142.885 79.0781 142.093 81.9872 140.819 84.7424C140.583 85.2555 140.335 85.7519 140.091 86.1881C139.108 87.9427 137.367 90.1378 136.262 91.4653C135.599 92.2634 134.871 93.0132 134.107 93.7364L133.757 94.0687C132.522 95.2397 131.18 96.3158 129.746 97.2858C129.218 97.6427 128.686 98.0028 128.087 98.2514C127.823 98.3609 127.534 98.4581 127.278 98.4945C126.848 98.5558 126.585 98.5848 126.161 98.4945Z" fill="#F3C613"/>
</svg>
